<svg xmlns="http://www.w3.org/2000/svg" xmlns:xlink="http://www.w3.org/1999/xlink" width="800" height="521.04"><rect width="800" height="521.04" rx="0" ry="0" class="a"/><svg height="521.04" viewBox="0 0 80 52.104" width="800" xmlns="http://www.w3.org/2000/svg" xmlns:xlink="http://www.w3.org/1999/xlink"><style>@keyframes h{0%{transform:translateX(0)}.2%{transform:translateX(-160px)}9.4%{transform:translateX(-240px)}10.2%{transform:translateX(-320px)}11.2%{transform:translateX(-400px)}11.8%{transform:translateX(-480px)}12.9%{transform:translateX(-560px)}13.7%{transform:translateX(-640px)}14.6%{transform:translateX(-720px)}15.8%{transform:translateX(-800px)}16.6%{transform:translateX(-880px)}17.1%{transform:translateX(-960px)}18.3%{transform:translateX(-1040px)}19.3%{transform:translateX(-1120px)}22.9%{transform:translateX(-1280px)}23.6%{transform:translateX(-1360px)}24.2%{transform:translateX(-1440px)}24.8%{transform:translateX(-1520px)}25.4%{transform:translateX(-1680px)}26%{transform:translateX(-1760px)}26.3%{transform:translateX(-2720px)}26.4%{transform:translateX(-2880px)}32.8%{transform:translateX(-2960px)}33.7%{transform:translateX(-3040px)}34.6%{transform:translateX(-3120px)}35.5%{transform:translateX(-3200px)}44.2%{transform:translateX(-3280px)}44.9%{transform:translateX(-3360px)}46.2%{transform:translateX(-3440px)}49.4%{transform:translateX(-3520px)}50.6%{transform:translateX(-3600px)}52.2%{transform:translateX(-3680px)}53.2%{transform:translateX(-3760px)}54.9%{transform:translateX(-3840px)}55.7%{transform:translateX(-4080px)}61%{transform:translateX(-4320px)}61.7%{transform:translateX(-4480px)}62%{transform:translateX(-4720px)}70%{transform:translateX(-4800px)}87.9%{transform:translateX(-4880px)}88.1%{transform:translateX(-5280px)}88.2%{transform:translateX(-5600px)}to{transform:translateX(-5680px)}}.a{fill:#282d35}.c,.d,.e{fill:#b9c0cb;white-space:pre}.d,.e{fill:#a8cc8c;font-weight:700}.e{fill:#ad7fa8}</style><g font-family="Monaco,Consolas,Menlo,'Bitstream Vera Sans Mono','Powerline Symbols',monospace" font-size="1.67"><defs><symbol id="1"><text y="1.67" class="c">yuezhou@bitravage</text><text x="18.036" y="1.67" class="c">cprg306-assignments</text><text x="38.076" y="1.67" class="c">%</text></symbol><symbol id="2"><text y="1.67" class="c">yuezhou@bitravage</text><text x="18.036" y="1.67" class="c">cprg306-assignments</text><text x="38.076" y="1.67" class="c">%</text><text x="40.08" y="1.67" class="c">n</text></symbol><symbol id="3"><text y="1.67" class="c">yuezhou@bitravage</text><text x="18.036" y="1.67" class="c">cprg306-assignments</text><text x="38.076" y="1.67" class="c">%</text><text x="40.08" y="1.67" class="c">np</text></symbol><symbol id="4"><text y="1.67" class="c">yuezhou@bitravage</text><text x="18.036" y="1.67" class="c">cprg306-assignments</text><text x="38.076" y="1.67" class="c">%</text><text x="40.08" y="1.67" class="c">npm</text></symbol><symbol id="5"><text y="1.67" class="c">yuezhou@bitravage</text><text x="18.036" y="1.67" class="c">cprg306-assignments</text><text x="38.076" y="1.67" class="c">%</text><text x="40.08" y="1.67" class="c">npm</text><text x="44.088" y="1.67" class="c">install</text></symbol><symbol id="6"><text y="1.67" class="c">⠙</text></symbol><symbol id="7"><text y="1.67" class="c">⠦</text></symbol><symbol id="8"><text y="1.67" class="c">up</text><text x="3.006" y="1.67" class="c">to</text><text x="6.012" y="1.67" class="c">date,</text><text x="12.024" y="1.67" class="c">audited</text><text x="20.04" y="1.67" class="c">395</text><text x="24.048" y="1.67" class="c">packages</text><text x="33.066" y="1.67" class="c">in</text><text x="36.072" y="1.67" class="c">711ms</text></symbol><symbol id="9"><text y="1.67" class="c">145</text><text x="4.008" y="1.67" class="c">packages</text><text x="13.026" y="1.67" class="c">are</text><text x="17.034" y="1.67" class="c">looking</text><text x="25.05" y="1.67" class="c">for</text><text x="29.058" y="1.67" class="c">funding</text></symbol><symbol id="10"><text x="2.004" y="1.67" class="c">run</text><text x="6.012" y="1.67" class="c">`npm</text><text x="11.022" y="1.67" class="c">fund`</text><text x="17.034" y="1.67" class="c">for</text><text x="21.042" y="1.67" class="c">details</text></symbol><symbol id="11"><text y="1.67" class="c">found</text><text x="6.012" y="1.67" class="d">0</text><text x="8.016" y="1.67" class="c">vulnerabilities</text></symbol><symbol id="12"><text y="1.67" class="c">yuezhou@bitravage</text><text x="18.036" y="1.67" class="c">cprg306-assignments</text><text x="38.076" y="1.67" class="c">%</text><text x="40.08" y="1.67" class="c">npm</text><text x="44.088" y="1.67" class="c">run</text></symbol><symbol id="13"><text y="1.67" class="c">yuezhou@bitravage</text><text x="18.036" y="1.67" class="c">cprg306-assignments</text><text x="38.076" y="1.67" class="c">%</text><text x="40.08" y="1.67" class="c">npm</text><text x="44.088" y="1.67" class="c">run</text><text x="48.096" y="1.67" class="c">dev</text></symbol><symbol id="14"><text y="1.67" class="c">&gt;</text><text x="2.004" y="1.67" class="c">cprg306-assignments@0.1.0</text><text x="28.056" y="1.67" class="c">dev</text></symbol><symbol id="15"><text y="1.67" class="c">&gt;</text><text x="2.004" y="1.67" class="c">concurrently</text><text x="15.03" y="1.67" class="c">&quot;npx</text><text x="20.04" y="1.67" class="c">tailwindcss</text><text x="32.064" y="1.67" class="c">-i</text><text x="35.07" y="1.67" class="c">./app/globals.css</text><text x="53.106" y="1.67" class="c">-o</text><text x="56.112" y="1.67" class="c">./public/output.css</text><text x="76.152" y="1.67" class="c">--wa</text></symbol><symbol id="16"><text y="1.67" class="c">tch&quot;</text><text x="5.01" y="1.67" class="c">&quot;next</text><text x="11.022" y="1.67" class="c">dev&quot;</text></symbol><symbol id="17"><text y="1.67" class="c">[0]</text></symbol><symbol id="18"><text y="1.67" class="c">[0]</text><text x="4.008" y="1.67" class="c">Rebuilding...</text></symbol><symbol id="19"><text y="1.67" class="c">[0]</text><text x="4.008" y="1.67" class="c">Done</text><text x="9.018" y="1.67" class="c">in</text><text x="12.024" y="1.67" class="c">123ms.</text></symbol><symbol id="20"><text y="1.67" class="c">[1]</text></symbol><symbol id="21"><text y="1.67" class="c">[1]</text><text x="7.014" y="1.67" class="e">▲</text><text x="9.018" y="1.67" class="e">Next.js</text><text x="17.034" y="1.67" class="e">15.1.5</text></symbol><symbol id="22"><text y="1.67" class="c">[1]</text><text x="7.014" y="1.67" class="c">-</text><text x="9.018" y="1.67" class="c">Local:</text><text x="23.046" y="1.67" class="c">http://localhost:3000</text></symbol><symbol id="23"><text y="1.67" class="c">[1]</text><text x="7.014" y="1.67" class="c">-</text><text x="9.018" y="1.67" class="c">Network:</text><text x="23.046" y="1.67" class="c">http://10.0.0.207:3000</text></symbol><symbol id="24"><text y="1.67" class="c">[1]</text><text x="5.01" y="1.67" class="d">✓</text><text x="7.014" y="1.67" class="c">Starting...</text></symbol><symbol id="25"><text y="1.67" class="c">[1]</text><text x="5.01" y="1.67" class="d">✓</text><text x="7.014" y="1.67" class="c">Ready</text><text x="13.026" y="1.67" class="c">in</text><text x="16.032" y="1.67" class="c">1206ms</text></symbol><symbol id="26"><text y="1.67" class="c">^C[0]</text><text x="6.012" y="1.67" class="c">npx</text><text x="10.02" y="1.67" class="c">tailwindcss</text><text x="22.044" y="1.67" class="c">-i</text><text x="25.05" y="1.67" class="c">./app/globals.css</text><text x="43.086" y="1.67" class="c">-o</text><text x="46.092" y="1.67" class="c">./public/output.css</text><text x="66.132" y="1.67" class="c">--watch</text><text x="74.148" y="1.67" class="c">exited</text></symbol><symbol id="27"><text x="1.002" y="1.67" class="c">with</text><text x="6.012" y="1.67" class="c">code</text><text x="11.022" y="1.67" class="c">SIGINT</text></symbol><symbol id="28"><text y="1.67" class="c">[1]</text><text x="4.008" y="1.67" class="c">next</text><text x="9.018" y="1.67" class="c">dev</text><text x="13.026" y="1.67" class="c">exited</text><text x="20.04" y="1.67" class="c">with</text><text x="25.05" y="1.67" class="c">code</text><text x="30.06" y="1.67" class="c">0</text></symbol><symbol id="a"><path fill="transparent" d="M0 0h80v24H0z"/></symbol><symbol id="b"><path fill="#6f7683" d="M0 0h1.102v2.171H0z"/></symbol></defs><path class="a" d="M0 0h80v52.104H0z"/><g style="animation-duration:13.694353s;animation-iteration-count:infinite;animation-name:h;animation-timing-function:steps(1,end)"><svg width="5760"><svg><use xlink:href="#a"/><use xlink:href="#b" x="-.004"/></svg><svg x="80"><use xlink:href="#a"/><use xlink:href="#b" x="-.004"/></svg><svg x="160"><use xlink:href="#a"/><use xlink:href="#b" x="39.996"/><use xlink:href="#1"/></svg><svg x="240"><use xlink:href="#a"/><use xlink:href="#b" x="40.996"/><use xlink:href="#2"/></svg><svg x="320"><use xlink:href="#a"/><use xlink:href="#b" x="41.996"/><use xlink:href="#3"/></svg><svg x="400"><use xlink:href="#a"/><use xlink:href="#b" x="42.996"/><use xlink:href="#4"/></svg><svg x="480"><use xlink:href="#a"/><use xlink:href="#b" x="43.996"/><use xlink:href="#4"/></svg><svg x="560"><use xlink:href="#a"/><use xlink:href="#b" x="44.996"/><text y="1.67" class="c">yuezhou@bitravage</text><text x="18.036" y="1.67" class="c">cprg306-assignments</text><text x="38.076" y="1.67" class="c">%</text><text x="40.08" y="1.67" class="c">npm</text><text x="44.088" y="1.67" class="c">i</text></svg><svg x="640"><use xlink:href="#a"/><use xlink:href="#b" x="45.996"/><text y="1.67" class="c">yuezhou@bitravage</text><text x="18.036" y="1.67" class="c">cprg306-assignments</text><text x="38.076" y="1.67" class="c">%</text><text x="40.08" y="1.67" class="c">npm</text><text x="44.088" y="1.67" class="c">in</text></svg><svg x="720"><use xlink:href="#a"/><use xlink:href="#b" x="46.996"/><text y="1.67" class="c">yuezhou@bitravage</text><text x="18.036" y="1.67" class="c">cprg306-assignments</text><text x="38.076" y="1.67" class="c">%</text><text x="40.08" y="1.67" class="c">npm</text><text x="44.088" y="1.67" class="c">ins</text></svg><svg x="800"><use xlink:href="#a"/><use xlink:href="#b" x="47.996"/><text y="1.67" class="c">yuezhou@bitravage</text><text x="18.036" y="1.67" class="c">cprg306-assignments</text><text x="38.076" y="1.67" class="c">%</text><text x="40.08" y="1.67" class="c">npm</text><text x="44.088" y="1.67" class="c">inst</text></svg><svg x="880"><use xlink:href="#a"/><use xlink:href="#b" x="48.996"/><text y="1.67" class="c">yuezhou@bitravage</text><text x="18.036" y="1.67" class="c">cprg306-assignments</text><text x="38.076" y="1.67" class="c">%</text><text x="40.08" y="1.67" class="c">npm</text><text x="44.088" y="1.67" class="c">insta</text></svg><svg x="960"><use xlink:href="#a"/><use xlink:href="#b" x="49.996"/><text y="1.67" class="c">yuezhou@bitravage</text><text x="18.036" y="1.67" class="c">cprg306-assignments</text><text x="38.076" y="1.67" class="c">%</text><text x="40.08" y="1.67" class="c">npm</text><text x="44.088" y="1.67" class="c">instal</text></svg><svg x="1040"><use xlink:href="#a"/><use xlink:href="#b" x="50.996"/><use xlink:href="#5"/></svg><svg x="1120"><use xlink:href="#a"/><use xlink:href="#b" x="-.004" y="2.146"/><use xlink:href="#5"/></svg><svg x="1200"><use xlink:href="#a"/><use xlink:href="#b" x="-.004" y="2.146"/><use xlink:href="#5"/></svg><svg x="1280"><use xlink:href="#a"/><use xlink:href="#b" x=".996" y="2.146"/><use xlink:href="#5"/><use xlink:href="#6" y="2.171"/></svg><svg x="1360"><use xlink:href="#a"/><use xlink:href="#b" x=".996" y="2.146"/><use xlink:href="#5"/><text y="3.841" class="c">⠹</text></svg><svg x="1440"><use xlink:href="#a"/><use xlink:href="#b" x=".996" y="2.146"/><use xlink:href="#5"/><text y="3.841" class="c">⠸</text></svg><svg x="1520"><use xlink:href="#a"/><use xlink:href="#b" x=".996" y="2.146"/><use xlink:href="#5"/><text y="3.841" class="c">⠼</text></svg><svg x="1600"><use xlink:href="#a"/><use xlink:href="#b" x="-.004" y="2.146"/><use xlink:href="#5"/></svg><svg x="1680"><use xlink:href="#a"/><use xlink:href="#b" x=".996" y="2.146"/><use xlink:href="#5"/><text y="3.841" class="c">⠴</text></svg><svg x="1760"><use xlink:href="#a"/><use xlink:href="#b" x=".996" y="2.146"/><use xlink:href="#5"/><use xlink:href="#7" y="2.171"/></svg><svg x="1840"><use xlink:href="#a"/><use xlink:href="#b" x="-.004" y="2.146"/><use xlink:href="#5"/></svg><svg x="1920"><use xlink:href="#a"/><use xlink:href="#b" x=".996" y="6.488"/><use xlink:href="#5"/><use xlink:href="#8" y="4.342"/><use xlink:href="#7" y="6.513"/></svg><svg x="2000"><use xlink:href="#a"/><use xlink:href="#b" x="-.004" y="6.488"/><use xlink:href="#5"/><use xlink:href="#8" y="4.342"/></svg><svg x="2080"><use xlink:href="#a"/><use xlink:href="#b" x="-.004" y="8.659"/><use xlink:href="#5"/><use xlink:href="#8" y="4.342"/></svg><svg x="2160"><use xlink:href="#a"/><use xlink:href="#b" x="-.004" y="10.83"/><use xlink:href="#5"/><use xlink:href="#8" y="4.342"/><use xlink:href="#9" y="8.684"/></svg><svg x="2240"><use xlink:href="#a"/><use xlink:href="#b" x=".996" y="10.83"/><use xlink:href="#5"/><use xlink:href="#8" y="4.342"/><use xlink:href="#9" y="8.684"/><use xlink:href="#7" y="10.855"/></svg><svg x="2320"><use xlink:href="#a"/><use xlink:href="#b" x="-.004" y="13.001"/><use xlink:href="#5"/><use xlink:href="#8" y="4.342"/><use xlink:href="#9" y="8.684"/><use xlink:href="#10" y="10.855"/></svg><svg x="2400"><use xlink:href="#a"/><use xlink:href="#b" x=".996" y="13.001"/><use xlink:href="#5"/><use xlink:href="#8" y="4.342"/><use xlink:href="#9" y="8.684"/><use xlink:href="#10" y="10.855"/><use xlink:href="#7" y="13.026"/></svg><svg x="2480"><use xlink:href="#a"/><use xlink:href="#b" x="-.004" y="17.343"/><use xlink:href="#5"/><use xlink:href="#8" y="4.342"/><use xlink:href="#9" y="8.684"/><use xlink:href="#10" y="10.855"/><use xlink:href="#11" y="15.197"/></svg><svg x="2560"><use xlink:href="#a"/><use xlink:href="#b" x=".996" y="17.343"/><use xlink:href="#5"/><use xlink:href="#8" y="4.342"/><use xlink:href="#9" y="8.684"/><use xlink:href="#10" y="10.855"/><use xlink:href="#11" y="15.197"/><use xlink:href="#7" y="17.368"/></svg><svg x="2640"><use xlink:href="#a"/><use xlink:href="#b" x="-.004" y="17.343"/><use xlink:href="#5"/><use xlink:href="#8" y="4.342"/><use xlink:href="#9" y="8.684"/><use xlink:href="#10" y="10.855"/><use xlink:href="#11" y="15.197"/><use xlink:href="#7" y="17.368"/></svg><svg x="2720"><use xlink:href="#a"/><use xlink:href="#b" x="-.004" y="17.343"/><use xlink:href="#5"/><use xlink:href="#8" y="4.342"/><use xlink:href="#9" y="8.684"/><use xlink:href="#10" y="10.855"/><use xlink:href="#11" y="15.197"/></svg><svg x="2800"><use xlink:href="#a"/><use xlink:href="#b" x="-.004" y="17.343"/><use xlink:href="#5"/><use xlink:href="#8" y="4.342"/><use xlink:href="#9" y="8.684"/><use xlink:href="#10" y="10.855"/><use xlink:href="#11" y="15.197"/></svg><svg x="2880"><use xlink:href="#a"/><use xlink:href="#b" x="39.996" y="17.343"/><use xlink:href="#5"/><use xlink:href="#8" y="4.342"/><use xlink:href="#9" y="8.684"/><use xlink:href="#10" y="10.855"/><use xlink:href="#11" y="15.197"/><use xlink:href="#1" y="17.368"/></svg><svg x="2960"><use xlink:href="#a"/><use xlink:href="#b" x="40.996" y="17.343"/><use xlink:href="#5"/><use xlink:href="#8" y="4.342"/><use xlink:href="#9" y="8.684"/><use xlink:href="#10" y="10.855"/><use xlink:href="#11" y="15.197"/><use xlink:href="#2" y="17.368"/></svg><svg x="3040"><use xlink:href="#a"/><use xlink:href="#b" x="41.996" y="17.343"/><use xlink:href="#5"/><use xlink:href="#8" y="4.342"/><use xlink:href="#9" y="8.684"/><use xlink:href="#10" y="10.855"/><use xlink:href="#11" y="15.197"/><use xlink:href="#3" y="17.368"/></svg><svg x="3120"><use xlink:href="#a"/><use xlink:href="#b" x="42.996" y="17.343"/><use xlink:href="#5"/><use xlink:href="#8" y="4.342"/><use xlink:href="#9" y="8.684"/><use xlink:href="#10" y="10.855"/><use xlink:href="#11" y="15.197"/><use xlink:href="#4" y="17.368"/></svg><svg x="3200"><use xlink:href="#a"/><use xlink:href="#b" x="43.996" y="17.343"/><use xlink:href="#5"/><use xlink:href="#8" y="4.342"/><use xlink:href="#9" y="8.684"/><use xlink:href="#10" y="10.855"/><use xlink:href="#11" y="15.197"/><use xlink:href="#4" y="17.368"/></svg><svg x="3280"><use xlink:href="#a"/><use xlink:href="#b" x="44.996" y="17.343"/><use xlink:href="#5"/><use xlink:href="#8" y="4.342"/><use xlink:href="#9" y="8.684"/><use xlink:href="#10" y="10.855"/><use xlink:href="#11" y="15.197"/><text y="19.038" class="c">yuezhou@bitravage</text><text x="18.036" y="19.038" class="c">cprg306-assignments</text><text x="38.076" y="19.038" class="c">%</text><text x="40.08" y="19.038" class="c">npm</text><text x="44.088" y="19.038" class="c">r</text></svg><svg x="3360"><use xlink:href="#a"/><use xlink:href="#b" x="45.996" y="17.343"/><use xlink:href="#5"/><use xlink:href="#8" y="4.342"/><use xlink:href="#9" y="8.684"/><use xlink:href="#10" y="10.855"/><use xlink:href="#11" y="15.197"/><text y="19.038" class="c">yuezhou@bitravage</text><text x="18.036" y="19.038" class="c">cprg306-assignments</text><text x="38.076" y="19.038" class="c">%</text><text x="40.08" y="19.038" class="c">npm</text><text x="44.088" y="19.038" class="c">ru</text></svg><svg x="3440"><use xlink:href="#a"/><use xlink:href="#b" x="46.996" y="17.343"/><use xlink:href="#5"/><use xlink:href="#8" y="4.342"/><use xlink:href="#9" y="8.684"/><use xlink:href="#10" y="10.855"/><use xlink:href="#11" y="15.197"/><use xlink:href="#12" y="17.368"/></svg><svg x="3520"><use xlink:href="#a"/><use xlink:href="#b" x="47.996" y="17.343"/><use xlink:href="#5"/><use xlink:href="#8" y="4.342"/><use xlink:href="#9" y="8.684"/><use xlink:href="#10" y="10.855"/><use xlink:href="#11" y="15.197"/><use xlink:href="#12" y="17.368"/></svg><svg x="3600"><use xlink:href="#a"/><use xlink:href="#b" x="48.996" y="17.343"/><use xlink:href="#5"/><use xlink:href="#8" y="4.342"/><use xlink:href="#9" y="8.684"/><use xlink:href="#10" y="10.855"/><use xlink:href="#11" y="15.197"/><text y="19.038" class="c">yuezhou@bitravage</text><text x="18.036" y="19.038" class="c">cprg306-assignments</text><text x="38.076" y="19.038" class="c">%</text><text x="40.08" y="19.038" class="c">npm</text><text x="44.088" y="19.038" class="c">run</text><text x="48.096" y="19.038" class="c">d</text></svg><svg x="3680"><use xlink:href="#a"/><use xlink:href="#b" x="49.996" y="17.343"/><use xlink:href="#5"/><use xlink:href="#8" y="4.342"/><use xlink:href="#9" y="8.684"/><use xlink:href="#10" y="10.855"/><use xlink:href="#11" y="15.197"/><text y="19.038" class="c">yuezhou@bitravage</text><text x="18.036" y="19.038" class="c">cprg306-assignments</text><text x="38.076" y="19.038" class="c">%</text><text x="40.08" y="19.038" class="c">npm</text><text x="44.088" y="19.038" class="c">run</text><text x="48.096" y="19.038" class="c">de</text></svg><svg x="3760"><use xlink:href="#a"/><use xlink:href="#b" x="50.996" y="17.343"/><use xlink:href="#5"/><use xlink:href="#8" y="4.342"/><use xlink:href="#9" y="8.684"/><use xlink:href="#10" y="10.855"/><use xlink:href="#11" y="15.197"/><use xlink:href="#13" y="17.368"/></svg><svg x="3840"><use xlink:href="#a"/><use xlink:href="#b" x="-.004" y="19.514"/><use xlink:href="#5"/><use xlink:href="#8" y="4.342"/><use xlink:href="#9" y="8.684"/><use xlink:href="#10" y="10.855"/><use xlink:href="#11" y="15.197"/><use xlink:href="#13" y="17.368"/></svg><svg x="3920"><use xlink:href="#a"/><use xlink:href="#b" x="-.004" y="30.369"/><use xlink:href="#5"/><use xlink:href="#8" y="4.342"/><use xlink:href="#9" y="8.684"/><use xlink:href="#10" y="10.855"/><use xlink:href="#11" y="15.197"/><use xlink:href="#13" y="17.368"/><use xlink:href="#14" y="21.71"/><use xlink:href="#15" y="23.881"/><use xlink:href="#16" y="26.052"/></svg><svg x="4000"><use xlink:href="#a"/><use xlink:href="#b" x="-.004" y="30.369"/><use xlink:href="#5"/><use xlink:href="#8" y="4.342"/><use xlink:href="#9" y="8.684"/><use xlink:href="#10" y="10.855"/><use xlink:href="#11" y="15.197"/><use xlink:href="#13" y="17.368"/><use xlink:href="#14" y="21.71"/><use xlink:href="#15" y="23.881"/><use xlink:href="#16" y="26.052"/></svg><svg x="4080"><use xlink:href="#a"/><use xlink:href="#b" x="-.004" y="30.369"/><use xlink:href="#5"/><use xlink:href="#8" y="4.342"/><use xlink:href="#9" y="8.684"/><use xlink:href="#10" y="10.855"/><use xlink:href="#11" y="15.197"/><use xlink:href="#13" y="17.368"/><use xlink:href="#14" y="21.71"/><use xlink:href="#15" y="23.881"/><use xlink:href="#16" y="26.052"/></svg><svg x="4160"><use xlink:href="#a"/><use xlink:href="#b" x="3.996" y="30.369"/><use xlink:href="#5"/><use xlink:href="#8" y="4.342"/><use xlink:href="#9" y="8.684"/><use xlink:href="#10" y="10.855"/><use xlink:href="#11" y="15.197"/><use xlink:href="#13" y="17.368"/><use xlink:href="#14" y="21.71"/><use xlink:href="#15" y="23.881"/><use xlink:href="#16" y="26.052"/><use xlink:href="#17" y="30.394"/></svg><svg x="4240"><use xlink:href="#a"/><use xlink:href="#b" x="-.004" y="32.54"/><use xlink:href="#5"/><use xlink:href="#8" y="4.342"/><use xlink:href="#9" y="8.684"/><use xlink:href="#10" y="10.855"/><use xlink:href="#11" y="15.197"/><use xlink:href="#13" y="17.368"/><use xlink:href="#14" y="21.71"/><use xlink:href="#15" y="23.881"/><use xlink:href="#16" y="26.052"/><use xlink:href="#17" y="30.394"/></svg><svg x="4320"><use xlink:href="#a"/><use xlink:href="#b" x="-.004" y="34.711"/><use xlink:href="#5"/><use xlink:href="#8" y="4.342"/><use xlink:href="#9" y="8.684"/><use xlink:href="#10" y="10.855"/><use xlink:href="#11" y="15.197"/><use xlink:href="#13" y="17.368"/><use xlink:href="#14" y="21.71"/><use xlink:href="#15" y="23.881"/><use xlink:href="#16" y="26.052"/><use xlink:href="#17" y="30.394"/><use xlink:href="#18" y="32.565"/></svg><svg x="4400"><use xlink:href="#a"/><use xlink:href="#b" x="-.004" y="36.882"/><use xlink:href="#5"/><use xlink:href="#8" y="4.342"/><use xlink:href="#9" y="8.684"/><use xlink:href="#10" y="10.855"/><use xlink:href="#11" y="15.197"/><use xlink:href="#13" y="17.368"/><use xlink:href="#14" y="21.71"/><use xlink:href="#15" y="23.881"/><use xlink:href="#16" y="26.052"/><use xlink:href="#17" y="30.394"/><use xlink:href="#18" y="32.565"/><use xlink:href="#17" y="34.736"/></svg><svg x="4480"><use xlink:href="#a"/><use xlink:href="#b" x="-.004" y="39.053"/><use xlink:href="#5"/><use xlink:href="#8" y="4.342"/><use xlink:href="#9" y="8.684"/><use xlink:href="#10" y="10.855"/><use xlink:href="#11" y="15.197"/><use xlink:href="#13" y="17.368"/><use xlink:href="#14" y="21.71"/><use xlink:href="#15" y="23.881"/><use xlink:href="#16" y="26.052"/><use xlink:href="#17" y="30.394"/><use xlink:href="#18" y="32.565"/><use xlink:href="#17" y="34.736"/><use xlink:href="#19" y="36.907"/></svg><svg x="4560"><use xlink:href="#a"/><use xlink:href="#b" x="3.996" y="39.053"/><use xlink:href="#5"/><use xlink:href="#8" y="4.342"/><use xlink:href="#9" y="8.684"/><use xlink:href="#10" y="10.855"/><use xlink:href="#11" y="15.197"/><use xlink:href="#13" y="17.368"/><use xlink:href="#14" y="21.71"/><use xlink:href="#15" y="23.881"/><use xlink:href="#16" y="26.052"/><use xlink:href="#17" y="30.394"/><use xlink:href="#18" y="32.565"/><use xlink:href="#17" y="34.736"/><use xlink:href="#19" y="36.907"/><use xlink:href="#20" y="39.078"/></svg><svg x="4640"><use xlink:href="#a"/><use xlink:href="#b" x="-.004" y="41.224"/><use xlink:href="#5"/><use xlink:href="#8" y="4.342"/><use xlink:href="#9" y="8.684"/><use xlink:href="#10" y="10.855"/><use xlink:href="#11" y="15.197"/><use xlink:href="#13" y="17.368"/><use xlink:href="#14" y="21.71"/><use xlink:href="#15" y="23.881"/><use xlink:href="#16" y="26.052"/><use xlink:href="#17" y="30.394"/><use xlink:href="#18" y="32.565"/><use xlink:href="#17" y="34.736"/><use xlink:href="#19" y="36.907"/><use xlink:href="#21" y="39.078"/></svg><svg x="4720"><use xlink:href="#a"/><use xlink:href="#b" x="-.004" y="49.908"/><use xlink:href="#5"/><use xlink:href="#8" y="4.342"/><use xlink:href="#9" y="8.684"/><use xlink:href="#10" y="10.855"/><use xlink:href="#11" y="15.197"/><use xlink:href="#13" y="17.368"/><use xlink:href="#14" y="21.71"/><use xlink:href="#15" y="23.881"/><use xlink:href="#16" y="26.052"/><use xlink:href="#17" y="30.394"/><use xlink:href="#18" y="32.565"/><use xlink:href="#17" y="34.736"/><use xlink:href="#19" y="36.907"/><use xlink:href="#21" y="39.078"/><use xlink:href="#22" y="41.249"/><use xlink:href="#23" y="43.42"/><use xlink:href="#20" y="45.591"/><use xlink:href="#24" y="47.762"/></svg><svg x="4800"><use xlink:href="#a"/><use xlink:href="#b" x="-.004" y="49.908"/><use xlink:href="#8" y="2.171"/><use xlink:href="#9" y="6.513"/><use xlink:href="#10" y="8.684"/><use xlink:href="#11" y="13.026"/><use xlink:href="#13" y="15.197"/><use xlink:href="#14" y="19.539"/><use xlink:href="#15" y="21.71"/><use xlink:href="#16" y="23.881"/><use xlink:href="#17" y="28.223"/><use xlink:href="#18" y="30.394"/><use xlink:href="#17" y="32.565"/><use xlink:href="#19" y="34.736"/><use xlink:href="#21" y="36.907"/><use xlink:href="#22" y="39.078"/><use xlink:href="#23" y="41.249"/><use xlink:href="#20" y="43.42"/><use xlink:href="#24" y="45.591"/><use xlink:href="#25" y="47.762"/></svg><svg x="4880"><use xlink:href="#a"/><use xlink:href="#b" x="1.996" y="49.908"/><use xlink:href="#8" y="2.171"/><use xlink:href="#9" y="6.513"/><use xlink:href="#10" y="8.684"/><use xlink:href="#11" y="13.026"/><use xlink:href="#13" y="15.197"/><use xlink:href="#14" y="19.539"/><use xlink:href="#15" y="21.71"/><use xlink:href="#16" y="23.881"/><use xlink:href="#17" y="28.223"/><use xlink:href="#18" y="30.394"/><use xlink:href="#17" y="32.565"/><use xlink:href="#19" y="34.736"/><use xlink:href="#21" y="36.907"/><use xlink:href="#22" y="39.078"/><use xlink:href="#23" y="41.249"/><use xlink:href="#20" y="43.42"/><use xlink:href="#24" y="45.591"/><use xlink:href="#25" y="47.762"/><text y="51.603" class="c">^C</text></svg><svg x="4960"><use xlink:href="#a"/><use xlink:href="#b" x="-.004" y="49.908"/><use xlink:href="#9" y="2.171"/><use xlink:href="#10" y="4.342"/><use xlink:href="#11" y="8.684"/><use xlink:href="#13" y="10.855"/><use xlink:href="#14" y="15.197"/><use xlink:href="#15" y="17.368"/><use xlink:href="#16" y="19.539"/><use xlink:href="#17" y="23.881"/><use xlink:href="#18" y="26.052"/><use xlink:href="#17" y="28.223"/><use xlink:href="#19" y="30.394"/><use xlink:href="#21" y="32.565"/><use xlink:href="#22" y="34.736"/><use xlink:href="#23" y="36.907"/><use xlink:href="#20" y="39.078"/><use xlink:href="#24" y="41.249"/><use xlink:href="#25" y="43.42"/><use xlink:href="#26" y="45.591"/><use xlink:href="#27" y="47.762"/></svg><svg x="5040"><use xlink:href="#a"/><use xlink:href="#b" x="-.004" y="49.908"/><use xlink:href="#9"/><use xlink:href="#10" y="2.171"/><use xlink:href="#11" y="6.513"/><use xlink:href="#13" y="8.684"/><use xlink:href="#14" y="13.026"/><use xlink:href="#15" y="15.197"/><use xlink:href="#16" y="17.368"/><use xlink:href="#17" y="21.71"/><use xlink:href="#18" y="23.881"/><use xlink:href="#17" y="26.052"/><use xlink:href="#19" y="28.223"/><use xlink:href="#21" y="30.394"/><use xlink:href="#22" y="32.565"/><use xlink:href="#23" y="34.736"/><use xlink:href="#20" y="36.907"/><use xlink:href="#24" y="39.078"/><use xlink:href="#25" y="41.249"/><use xlink:href="#26" y="43.42"/><use xlink:href="#27" y="45.591"/><use xlink:href="#20" y="47.762"/></svg><svg x="5120"><use xlink:href="#a"/><use xlink:href="#b" x="-.004" y="49.908"/><use xlink:href="#10"/><use xlink:href="#11" y="4.342"/><use xlink:href="#13" y="6.513"/><use xlink:href="#14" y="10.855"/><use xlink:href="#15" y="13.026"/><use xlink:href="#16" y="15.197"/><use xlink:href="#17" y="19.539"/><use xlink:href="#18" y="21.71"/><use xlink:href="#17" y="23.881"/><use xlink:href="#19" y="26.052"/><use xlink:href="#21" y="28.223"/><use xlink:href="#22" y="30.394"/><use xlink:href="#23" y="32.565"/><use xlink:href="#20" y="34.736"/><use xlink:href="#24" y="36.907"/><use xlink:href="#25" y="39.078"/><use xlink:href="#26" y="41.249"/><use xlink:href="#27" y="43.42"/><use xlink:href="#20" y="45.591"/><use xlink:href="#28" y="47.762"/></svg><svg x="5200"><use xlink:href="#a"/><use xlink:href="#b" x="-.004" y="49.908"/><use xlink:href="#10"/><use xlink:href="#11" y="4.342"/><use xlink:href="#13" y="6.513"/><use xlink:href="#14" y="10.855"/><use xlink:href="#15" y="13.026"/><use xlink:href="#16" y="15.197"/><use xlink:href="#17" y="19.539"/><use xlink:href="#18" y="21.71"/><use xlink:href="#17" y="23.881"/><use xlink:href="#19" y="26.052"/><use xlink:href="#21" y="28.223"/><use xlink:href="#22" y="30.394"/><use xlink:href="#23" y="32.565"/><use xlink:href="#20" y="34.736"/><use xlink:href="#24" y="36.907"/><use xlink:href="#25" y="39.078"/><use xlink:href="#26" y="41.249"/><use xlink:href="#27" y="43.42"/><use xlink:href="#20" y="45.591"/><use xlink:href="#28" y="47.762"/></svg><svg x="5280"><use xlink:href="#a"/><use xlink:href="#b" x=".996" y="49.908"/><use xlink:href="#10"/><use xlink:href="#11" y="4.342"/><use xlink:href="#13" y="6.513"/><use xlink:href="#14" y="10.855"/><use xlink:href="#15" y="13.026"/><use xlink:href="#16" y="15.197"/><use xlink:href="#17" y="19.539"/><use xlink:href="#18" y="21.71"/><use xlink:href="#17" y="23.881"/><use xlink:href="#19" y="26.052"/><use xlink:href="#21" y="28.223"/><use xlink:href="#22" y="30.394"/><use xlink:href="#23" y="32.565"/><use xlink:href="#20" y="34.736"/><use xlink:href="#24" y="36.907"/><use xlink:href="#25" y="39.078"/><use xlink:href="#26" y="41.249"/><use xlink:href="#27" y="43.42"/><use xlink:href="#20" y="45.591"/><use xlink:href="#28" y="47.762"/><use xlink:href="#6" y="49.933"/></svg><svg x="5360"><use xlink:href="#a"/><use xlink:href="#b" x="-.004" y="49.908"/><use xlink:href="#10"/><use xlink:href="#11" y="4.342"/><use xlink:href="#13" y="6.513"/><use xlink:href="#14" y="10.855"/><use xlink:href="#15" y="13.026"/><use xlink:href="#16" y="15.197"/><use xlink:href="#17" y="19.539"/><use xlink:href="#18" y="21.71"/><use xlink:href="#17" y="23.881"/><use xlink:href="#19" y="26.052"/><use xlink:href="#21" y="28.223"/><use xlink:href="#22" y="30.394"/><use xlink:href="#23" y="32.565"/><use xlink:href="#20" y="34.736"/><use xlink:href="#24" y="36.907"/><use xlink:href="#25" y="39.078"/><use xlink:href="#26" y="41.249"/><use xlink:href="#27" y="43.42"/><use xlink:href="#20" y="45.591"/><use xlink:href="#28" y="47.762"/><use xlink:href="#6" y="49.933"/></svg><svg x="5440"><use xlink:href="#a"/><use xlink:href="#b" x="-.004" y="49.908"/><use xlink:href="#10"/><use xlink:href="#11" y="4.342"/><use xlink:href="#13" y="6.513"/><use xlink:href="#14" y="10.855"/><use xlink:href="#15" y="13.026"/><use xlink:href="#16" y="15.197"/><use xlink:href="#17" y="19.539"/><use xlink:href="#18" y="21.71"/><use xlink:href="#17" y="23.881"/><use xlink:href="#19" y="26.052"/><use xlink:href="#21" y="28.223"/><use xlink:href="#22" y="30.394"/><use xlink:href="#23" y="32.565"/><use xlink:href="#20" y="34.736"/><use xlink:href="#24" y="36.907"/><use xlink:href="#25" y="39.078"/><use xlink:href="#26" y="41.249"/><use xlink:href="#27" y="43.42"/><use xlink:href="#20" y="45.591"/><use xlink:href="#28" y="47.762"/></svg><svg x="5520"><use xlink:href="#a"/><use xlink:href="#b" x="-.004" y="49.908"/><use xlink:href="#10"/><use xlink:href="#11" y="4.342"/><use xlink:href="#13" y="6.513"/><use xlink:href="#14" y="10.855"/><use xlink:href="#15" y="13.026"/><use xlink:href="#16" y="15.197"/><use xlink:href="#17" y="19.539"/><use xlink:href="#18" y="21.71"/><use xlink:href="#17" y="23.881"/><use xlink:href="#19" y="26.052"/><use xlink:href="#21" y="28.223"/><use xlink:href="#22" y="30.394"/><use xlink:href="#23" y="32.565"/><use xlink:href="#20" y="34.736"/><use xlink:href="#24" y="36.907"/><use xlink:href="#25" y="39.078"/><use xlink:href="#26" y="41.249"/><use xlink:href="#27" y="43.42"/><use xlink:href="#20" y="45.591"/><use xlink:href="#28" y="47.762"/></svg><svg x="5600"><use xlink:href="#a"/><use xlink:href="#b" x="39.996" y="49.908"/><use xlink:href="#10"/><use xlink:href="#11" y="4.342"/><use xlink:href="#13" y="6.513"/><use xlink:href="#14" y="10.855"/><use xlink:href="#15" y="13.026"/><use xlink:href="#16" y="15.197"/><use xlink:href="#17" y="19.539"/><use xlink:href="#18" y="21.71"/><use xlink:href="#17" y="23.881"/><use xlink:href="#19" y="26.052"/><use xlink:href="#21" y="28.223"/><use xlink:href="#22" y="30.394"/><use xlink:href="#23" y="32.565"/><use xlink:href="#20" y="34.736"/><use xlink:href="#24" y="36.907"/><use xlink:href="#25" y="39.078"/><use xlink:href="#26" y="41.249"/><use xlink:href="#27" y="43.42"/><use xlink:href="#20" y="45.591"/><use xlink:href="#28" y="47.762"/><use xlink:href="#1" y="49.933"/></svg><svg x="5680"><use xlink:href="#a"/><use xlink:href="#b" x="-.004" y="49.908"/><use xlink:href="#11" y="2.171"/><use xlink:href="#13" y="4.342"/><use xlink:href="#14" y="8.684"/><use xlink:href="#15" y="10.855"/><use xlink:href="#16" y="13.026"/><use xlink:href="#17" y="17.368"/><use xlink:href="#18" y="19.539"/><use xlink:href="#17" y="21.71"/><use xlink:href="#19" y="23.881"/><use xlink:href="#21" y="26.052"/><use xlink:href="#22" y="28.223"/><use xlink:href="#23" y="30.394"/><use xlink:href="#20" y="32.565"/><use xlink:href="#24" y="34.736"/><use xlink:href="#25" y="36.907"/><use xlink:href="#26" y="39.078"/><use xlink:href="#27" y="41.249"/><use xlink:href="#20" y="43.42"/><use xlink:href="#28" y="45.591"/><use xlink:href="#1" y="47.762"/></svg></svg></g></g></svg></svg>